# xmcd
#
# Track frame offsets:
#	150
#	21435
#	40417
#	62867
#	83717
#	104430
#	126050
#	144245
#	163405
#	182175
#	202855
#	222875
#	240787
#	261135
#	281580
#	300752
#
# Disc length: 4217 seconds
#
# Revision: 1
# Processed by: cddbd v1.5.1PL0 Copyright (c) Steve Scherf et al.
# Submitted via: CDex 1.50Beta5
#
DISCID=db107710
DTITLE=藤あや子 - 藤あや子ヒット全曲集’95
DYEAR=1994
DGENRE=World
TTITLE0=女泣川
TTITLE1=花のワルツ
TTITLE2=むらさき雨情
TTITLE3=むかい風
TTITLE4=男の船唄
TTITLE5=北半島
TTITLE6=涙の夜汽車
TTITLE7=こころ酒
TTITLE8=雨夜酒
TTITLE9=おんな
TTITLE10=なみだ草
TTITLE11=愛染橋
TTITLE12=人恋酒
TTITLE13=母子花
TTITLE14=恋雨
TTITLE15=あや子の幸せ小唄
EXTD=
EXTT0=
EXTT1=
EXTT2=
EXTT3=
EXTT4=
EXTT5=
EXTT6=
EXTT7=
EXTT8=
EXTT9=
EXTT10=
EXTT11=
EXTT12=
EXTT13=
EXTT14=
EXTT15=
PLAYORDER=
